<svg width="292" height="52" viewBox="0 0 292 52" fill="none" xmlns="http://www.w3.org/2000/svg">
  <path fill-rule="evenodd" clip-rule="evenodd" d="M86.3158 19.1275C86.2274 18.9154 86.1102 18.6458 85.9642 18.3187C85.8183 17.9917 85.6613 17.6381 85.4932 17.258C85.3252 16.878 85.1461 16.4868 84.9559 16.0847C84.7657 15.6825 84.5866 15.3024 84.4185 14.9444C84.2505 14.5864 84.0935 14.266 83.9475 13.9832C83.8016 13.7003 83.6844 13.4838 83.596 13.3335C83.4987 14.3765 83.4191 15.5057 83.3571 16.7211C83.2952 17.9364 83.2421 19.1629 83.1979 20.4003H81.9375C81.9729 19.6048 82.0127 18.8027 82.0569 17.9939C82.1011 17.1851 82.152 16.3896 82.2095 15.6074C82.267 14.8251 82.3289 14.0627 82.3952 13.3202C82.4616 12.5778 82.5345 11.8751 82.6142 11.2121H83.7419C83.9807 11.6011 84.2372 12.0607 84.5114 12.591C84.7856 13.1214 85.0598 13.676 85.334 14.255C85.6082 14.8339 85.8736 15.4129 86.1301 15.9919C86.3866 16.5708 86.621 17.0989 86.8333 17.5763C87.0455 17.0989 87.2799 16.5708 87.5364 15.9919C87.7929 15.4129 88.0583 14.8339 88.3325 14.255C88.6067 13.676 88.8809 13.1214 89.1551 12.591C89.4293 12.0607 89.6858 11.6011 89.9246 11.2121H91.0524C91.3531 14.1732 91.5786 17.2359 91.729 20.4003H90.4686C90.4244 19.1629 90.3713 17.9364 90.3094 16.7211C90.2475 15.5057 90.1679 14.3765 90.0706 13.3335C89.9821 13.4838 89.8649 13.7003 89.719 13.9832C89.573 14.266 89.416 14.5864 89.248 14.9444C89.0799 15.3024 88.9008 15.6825 88.7106 16.0847C88.5205 16.4868 88.3413 16.878 88.1733 17.258C88.0052 17.6381 87.8482 17.9917 87.7023 18.3187C87.5563 18.6458 87.4391 18.9154 87.3507 19.1275H86.3158ZM93.7457 20.4003V11.2121H99.3579V12.3126H95.0326V15.0439H98.8803V16.1178H95.0326V19.2999H99.6896V20.4003H93.7457ZM104.293 15.5212C104.028 15.2118 103.734 14.8693 103.411 14.4936C103.088 14.118 102.765 13.7379 102.443 13.3534C102.12 12.9689 101.806 12.591 101.501 12.2198C101.195 11.8485 100.923 11.5127 100.685 11.2121H102.184C102.378 11.4596 102.611 11.7513 102.88 12.0872C103.15 12.4231 103.438 12.7744 103.743 13.1413C104.048 13.5081 104.358 13.8793 104.672 14.255C104.986 14.6306 105.284 14.982 105.567 15.309V11.2121H106.801V15.309C107.075 14.982 107.369 14.6306 107.683 14.255C107.997 13.8793 108.307 13.5059 108.612 13.1346C108.917 12.7634 109.207 12.412 109.481 12.0806C109.755 11.7491 109.99 11.4596 110.184 11.2121H111.67C111.431 11.5127 111.159 11.8485 110.854 12.2198C110.549 12.591 110.235 12.9689 109.912 13.3534C109.589 13.7379 109.269 14.1158 108.95 14.487L108.075 15.5079C108.429 15.8261 108.782 16.1819 109.136 16.5752C109.49 16.9686 109.833 17.3774 110.164 17.8016C110.496 18.2259 110.808 18.659 111.1 19.101C111.392 19.5429 111.653 19.976 111.883 20.4003H110.423C110.184 19.9937 109.915 19.5849 109.614 19.1739C109.313 18.7629 109.003 18.3651 108.685 17.9806C108.367 17.5961 108.046 17.2359 107.723 16.9001C107.4 16.5642 107.093 16.2681 106.801 16.0117V20.4003H105.567V16.0117C105.275 16.2681 104.966 16.5642 104.638 16.9001C104.311 17.2359 103.988 17.5961 103.67 17.9806C103.351 18.3651 103.044 18.7629 102.748 19.1739C102.451 19.5849 102.184 19.9937 101.945 20.4003H100.499C100.72 19.976 100.977 19.5429 101.268 19.101C101.56 18.659 101.872 18.2259 102.204 17.8016C102.535 17.3774 102.88 16.9708 103.239 16.5819C103.597 16.1929 103.948 15.8394 104.293 15.5212ZM113.621 20.4003V22.8532H112.4V19.2999H113.369C113.82 18.7872 114.167 18.2193 114.41 17.5961C114.653 16.973 114.83 16.3145 114.941 15.6206C115.051 14.9267 115.118 14.2086 115.14 13.4661C115.162 12.7236 115.177 11.9723 115.186 11.2121H120.387V19.2999H121.541V22.8532H120.321V20.4003H113.621ZM116.447 12.3126C116.42 12.896 116.391 13.4904 116.36 14.0959C116.329 14.7014 116.263 15.3024 116.161 15.899C116.06 16.4957 115.911 17.0813 115.717 17.6558C115.522 18.2303 115.248 18.7784 114.894 19.2999H119.1V12.3126H116.447ZM127.008 17.5895C126.831 17.9961 126.647 18.3784 126.457 18.7364C126.267 19.0944 126.041 19.4059 125.78 19.6711C125.519 19.9363 125.205 20.144 124.838 20.2943C124.471 20.4445 124.018 20.5197 123.478 20.5197C123.372 20.5197 123.262 20.513 123.147 20.4998C123.032 20.4865 122.921 20.4688 122.815 20.4467C122.709 20.4246 122.616 20.4003 122.536 20.3738C122.457 20.3473 122.399 20.3208 122.364 20.2943L122.59 19.2071C122.704 19.2512 122.844 19.2954 123.007 19.3396C123.171 19.3838 123.341 19.4059 123.518 19.4059C123.784 19.4059 124.016 19.3728 124.215 19.3065C124.414 19.2402 124.593 19.1474 124.752 19.0281C124.911 18.9087 125.053 18.7629 125.177 18.5905C125.301 18.4182 125.42 18.2259 125.535 18.0138C125.146 17.3862 124.779 16.7609 124.434 16.1377C124.089 15.5145 123.77 14.9113 123.478 14.3279C123.187 13.7445 122.921 13.1899 122.682 12.6639C122.444 12.138 122.231 11.6541 122.046 11.2121H123.505C123.797 11.9811 124.171 12.8385 124.626 13.7843C125.082 14.7301 125.588 15.72 126.145 16.7542C126.499 15.9499 126.837 15.0638 127.16 14.0959C127.483 13.128 127.786 12.1668 128.069 11.2121H129.462C129.259 11.8486 129.055 12.4474 128.852 13.0087C128.648 13.57 128.445 14.1091 128.242 14.6262C128.038 15.1433 127.835 15.6471 127.631 16.1377C127.428 16.6283 127.22 17.1122 127.008 17.5895ZM136.494 11.2121H137.781V20.4003H136.494V16.1576H131.996V20.4003H130.709V11.2121H131.996V15.0439H136.494V11.2121ZM146.206 20.4003C146.056 20.0026 145.914 19.6114 145.781 19.2269C145.649 18.8424 145.512 18.4513 145.37 18.0536H141.204L140.368 20.4003H139.028C139.382 19.428 139.714 18.5287 140.023 17.7022C140.333 16.8758 140.636 16.0913 140.932 15.3488C141.228 14.6063 141.522 13.897 141.814 13.2208C142.106 12.5446 142.411 11.8751 142.73 11.2121H143.911C144.229 11.8751 144.534 12.5446 144.826 13.2208C145.118 13.897 145.412 14.6063 145.708 15.3488C146.005 16.0913 146.308 16.8758 146.617 17.7022C146.927 18.5287 147.258 19.428 147.612 20.4003H146.206ZM144.999 16.9929C144.715 16.2239 144.435 15.4792 144.156 14.7588C143.877 14.0384 143.588 13.3468 143.287 12.6838C142.977 13.3468 142.683 14.0384 142.405 14.7588C142.126 15.4792 141.85 16.2239 141.575 16.9929H144.999ZM151.301 11.1193C152.592 11.1193 153.585 11.3646 154.279 11.8552C154.974 12.3457 155.321 13.0772 155.321 14.0495C155.321 14.5798 155.226 15.0328 155.035 15.4085C154.845 15.7841 154.571 16.0891 154.213 16.3233C153.855 16.5576 153.419 16.7277 152.906 16.8338C152.393 16.9398 151.814 16.9929 151.168 16.9929H150.146V20.4003H148.859V11.3447C149.222 11.2563 149.627 11.1967 150.073 11.1657C150.52 11.1348 150.929 11.1193 151.301 11.1193ZM151.407 12.2463C150.858 12.2463 150.438 12.2596 150.146 12.2861V15.8924H151.115C151.557 15.8924 151.955 15.8637 152.309 15.8062C152.663 15.7488 152.961 15.6515 153.205 15.5145C153.448 15.3775 153.636 15.1897 153.768 14.9511C153.901 14.7124 153.967 14.4075 153.967 14.0362C153.967 13.6826 153.899 13.391 153.762 13.1611C153.625 12.9313 153.439 12.7479 153.205 12.6109C152.97 12.4739 152.698 12.3789 152.389 12.3259C152.079 12.2728 151.752 12.2463 151.407 12.2463ZM156.555 15.7996C156.555 15.0129 156.672 14.3191 156.906 13.718C157.141 13.1169 157.459 12.6153 157.861 12.2132C158.264 11.811 158.733 11.5082 159.268 11.3049C159.803 11.1016 160.371 11 160.973 11C161.565 11 162.125 11.1016 162.651 11.3049C163.177 11.5082 163.64 11.811 164.038 12.2132C164.436 12.6153 164.752 13.1169 164.986 13.718C165.221 14.3191 165.338 15.0129 165.338 15.7996C165.338 16.5863 165.221 17.2801 164.986 17.8812C164.752 18.4823 164.436 18.9839 164.038 19.386C163.64 19.7882 163.177 20.091 162.651 20.2943C162.125 20.4976 161.565 20.5992 160.973 20.5992C160.371 20.5992 159.803 20.4976 159.268 20.2943C158.733 20.091 158.264 19.7882 157.861 19.386C157.459 18.9839 157.141 18.4823 156.906 17.8812C156.672 17.2801 156.555 16.5863 156.555 15.7996ZM157.908 15.7996C157.908 16.3565 157.979 16.8625 158.12 17.3177C158.262 17.7729 158.463 18.1596 158.724 18.4778C158.985 18.796 159.303 19.0413 159.679 19.2137C160.055 19.386 160.477 19.4722 160.946 19.4722C161.415 19.4722 161.835 19.386 162.207 19.2137C162.578 19.0413 162.894 18.796 163.155 18.4778C163.416 18.1596 163.617 17.7729 163.759 17.3177C163.9 16.8625 163.971 16.3565 163.971 15.7996C163.971 15.2427 163.9 14.7367 163.759 14.2815C163.617 13.8263 163.416 13.4396 163.155 13.1214C162.894 12.8032 162.578 12.5579 162.207 12.3855C161.835 12.2132 161.415 12.127 160.946 12.127C160.477 12.127 160.055 12.2132 159.679 12.3855C159.303 12.5579 158.985 12.8032 158.724 13.1214C158.463 13.4396 158.262 13.8263 158.12 14.2815C157.979 14.7367 157.908 15.2427 157.908 15.7996ZM167.54 20.4003V22.8532H166.32V19.2999H167.288C167.739 18.7872 168.086 18.2193 168.33 17.5961C168.573 16.973 168.75 16.3145 168.86 15.6206C168.971 14.9267 169.037 14.2086 169.059 13.4661C169.081 12.7236 169.097 11.9723 169.106 11.2121H174.307V19.2999H175.461V22.8532H174.24V20.4003H167.54ZM170.366 12.3126C170.34 12.896 170.311 13.4904 170.28 14.0959C170.249 14.7014 170.183 15.3024 170.081 15.899C169.979 16.4957 169.831 17.0813 169.637 17.6558C169.442 18.2303 169.168 18.7784 168.814 19.2999H173.02V12.3126H170.366ZM182.626 11.2121H183.912V20.4003H182.626V16.1576H178.128V20.4003H176.841V11.2121H178.128V15.0439H182.626V11.2121ZM192.337 20.4003C192.187 20.0026 192.046 19.6114 191.913 19.2269C191.78 18.8424 191.643 18.4513 191.502 18.0536H187.336L186.5 20.4003H185.16C185.513 19.428 185.845 18.5287 186.155 17.7022C186.464 16.8758 186.767 16.0913 187.064 15.3488C187.36 14.6063 187.654 13.897 187.946 13.2208C188.238 12.5446 188.543 11.8751 188.861 11.2121H190.042C190.361 11.8751 190.666 12.5446 190.958 13.2208C191.249 13.897 191.544 14.6063 191.84 15.3488C192.136 16.0913 192.439 16.8758 192.749 17.7022C193.058 18.5287 193.39 19.428 193.744 20.4003H192.337ZM191.13 16.9929C190.847 16.2239 190.566 15.4792 190.288 14.7588C190.009 14.0384 189.719 13.3468 189.419 12.6838C189.109 13.3468 188.815 14.0384 188.536 14.7588C188.258 15.4792 187.981 16.2239 187.707 16.9929H191.13ZM198.56 12.2463C198.224 12.2463 197.903 12.2728 197.598 12.3259C197.293 12.3789 197.021 12.4717 196.782 12.6043C196.543 12.7369 196.353 12.9181 196.212 13.1479C196.07 13.3777 195.999 13.665 195.999 14.0097C195.999 14.6638 196.209 15.1168 196.63 15.3687C197.05 15.6206 197.68 15.7466 198.52 15.7466H199.847V12.2861C199.75 12.2861 199.635 12.2817 199.502 12.2728C199.387 12.264 199.252 12.2574 199.097 12.2529C198.942 12.2485 198.763 12.2463 198.56 12.2463ZM198.666 11.1193C198.852 11.1193 199.051 11.1237 199.263 11.1326C199.475 11.1414 199.69 11.1547 199.907 11.1724C200.123 11.19 200.338 11.2121 200.55 11.2387C200.762 11.2652 200.957 11.3005 201.134 11.3447V20.4003H199.847V16.8073H198.746C198.622 16.8073 198.491 16.805 198.354 16.8006C198.217 16.7962 198.034 16.7807 197.804 16.7542C197.644 16.9664 197.472 17.2138 197.286 17.4967C197.101 17.7795 196.915 18.0801 196.729 18.3983C196.543 18.7165 196.36 19.0479 196.178 19.3927C195.997 19.7374 195.831 20.0733 195.681 20.4003H194.328C194.469 20.0556 194.637 19.6976 194.832 19.3264C195.026 18.9551 195.228 18.6016 195.435 18.2657C195.643 17.9298 195.842 17.6182 196.032 17.331C196.223 17.0437 196.388 16.8073 196.53 16.6216C196.327 16.5598 196.114 16.4714 195.893 16.3565C195.672 16.2416 195.469 16.0825 195.283 15.8792C195.097 15.6759 194.945 15.4217 194.825 15.1168C194.706 14.8118 194.646 14.4472 194.646 14.023C194.646 13.5456 194.739 13.1258 194.925 12.7634C195.11 12.401 195.378 12.0983 195.727 11.8552C196.077 11.6121 196.499 11.4287 196.994 11.3049C197.49 11.1812 198.047 11.1193 198.666 11.1193ZM212.624 20.4003C212.473 20.0026 212.332 19.6114 212.199 19.2269C212.066 18.8424 211.929 18.4513 211.788 18.0536H207.622L206.786 20.4003H205.446C205.8 19.428 206.131 18.5287 206.441 17.7022C206.75 16.8758 207.053 16.0913 207.35 15.3488C207.646 14.6063 207.94 13.897 208.232 13.2208C208.524 12.5446 208.829 11.8751 209.148 11.2121H210.328C210.647 11.8751 210.952 12.5446 211.244 13.2208C211.536 13.897 211.83 14.6063 212.126 15.3488C212.422 16.0913 212.725 16.8758 213.035 17.7022C213.345 18.5287 213.676 19.428 214.03 20.4003H212.624ZM211.416 16.9929C211.133 16.2239 210.852 15.4792 210.574 14.7588C210.295 14.0384 210.005 13.3468 209.705 12.6838C209.395 13.3468 209.101 14.0384 208.822 14.7588C208.544 15.4792 208.267 16.2239 207.993 16.9929H211.416ZM222.083 11.2121C221.809 11.5127 221.5 11.8463 221.155 12.2132C220.81 12.58 220.449 12.9556 220.073 13.3401C219.697 13.7246 219.324 14.1025 218.952 14.4737C218.581 14.845 218.231 15.1897 217.904 15.5079C218.284 15.7731 218.687 16.1001 219.111 16.489C219.536 16.878 219.952 17.2934 220.359 17.7354C220.766 18.1773 221.148 18.6281 221.506 19.0877C221.865 19.5474 222.163 19.9849 222.402 20.4003H220.889C220.624 19.9849 220.319 19.5672 219.974 19.1474C219.629 18.7275 219.264 18.3254 218.879 17.9409C218.495 17.5564 218.105 17.2006 217.712 16.8735C217.318 16.5465 216.936 16.2681 216.564 16.0383V20.4003H215.277V11.2121H216.564V15.2693C216.874 14.9776 217.214 14.6483 217.586 14.2815C217.957 13.9147 218.324 13.5456 218.687 13.1744C219.05 12.8032 219.392 12.4474 219.715 12.1071C220.038 11.7668 220.31 11.4685 220.531 11.2121H222.083ZM229.765 20.4003C229.615 20.0026 229.474 19.6114 229.341 19.2269C229.208 18.8424 229.071 18.4513 228.93 18.0536H224.764L223.928 20.4003H222.588C222.941 19.428 223.273 18.5287 223.583 17.7022C223.892 16.8758 224.195 16.0913 224.492 15.3488C224.788 14.6063 225.082 13.897 225.374 13.2208C225.666 12.5446 225.971 11.8751 226.289 11.2121H227.47C227.789 11.8751 228.094 12.5446 228.386 13.2208C228.677 13.897 228.972 14.6063 229.268 15.3488C229.564 16.0913 229.867 16.8758 230.177 17.7022C230.486 18.5287 230.818 19.428 231.172 20.4003H229.765ZM228.558 16.9929C228.275 16.2239 227.994 15.4792 227.716 14.7588C227.437 14.0384 227.147 13.3468 226.847 12.6838C226.537 13.3468 226.243 14.0384 225.964 14.7588C225.686 15.4792 225.409 16.2239 225.135 16.9929H228.558ZM232.711 20.4003V22.8532H231.49V19.2999H232.459C232.91 18.7872 233.257 18.2193 233.5 17.5961C233.743 16.973 233.92 16.3145 234.031 15.6206C234.142 14.9267 234.208 14.2086 234.23 13.4661C234.252 12.7236 234.268 11.9723 234.276 11.2121H239.477V19.2999H240.632V22.8532H239.411V20.4003H232.711ZM235.537 12.3126C235.51 12.896 235.482 13.4904 235.451 14.0959C235.42 14.7014 235.353 15.3024 235.252 15.899C235.15 16.4957 235.002 17.0813 234.807 17.6558C234.613 18.2303 234.338 18.7784 233.985 19.2999H238.19V12.3126H235.537ZM242.011 20.4003V11.2121H247.624V12.3126H243.298V15.0439H247.146V16.1178H243.298V19.2999H247.955V20.4003H242.011ZM253.713 19.1275C253.625 18.9154 253.508 18.6458 253.362 18.3187C253.216 17.9917 253.059 17.6381 252.891 17.258C252.723 16.878 252.544 16.4868 252.354 16.0847C252.163 15.6825 251.984 15.3024 251.816 14.9444C251.648 14.5864 251.491 14.266 251.345 13.9832C251.199 13.7003 251.082 13.4838 250.994 13.3335C250.896 14.3765 250.817 15.5057 250.755 16.7211C250.693 17.9364 250.64 19.1629 250.596 20.4003H249.335C249.371 19.6048 249.41 18.8027 249.455 17.9939C249.499 17.1851 249.55 16.3896 249.607 15.6074C249.665 14.8251 249.727 14.0627 249.793 13.3202C249.859 12.5778 249.932 11.8751 250.012 11.2121H251.14C251.378 11.6011 251.635 12.0607 251.909 12.591C252.183 13.1214 252.457 13.676 252.732 14.255C253.006 14.8339 253.271 15.4129 253.528 15.9919C253.784 16.5708 254.019 17.0989 254.231 17.5763C254.443 17.0989 254.678 16.5708 254.934 15.9919C255.191 15.4129 255.456 14.8339 255.73 14.255C256.004 13.676 256.279 13.1214 256.553 12.591C256.827 12.0607 257.083 11.6011 257.322 11.2121H258.45C258.751 14.1732 258.976 17.2359 259.127 20.4003H257.866C257.822 19.1629 257.769 17.9364 257.707 16.7211C257.645 15.5057 257.565 14.3765 257.468 13.3335C257.38 13.4838 257.263 13.7003 257.117 13.9832C256.971 14.266 256.814 14.5864 256.646 14.9444C256.478 15.3024 256.298 15.6825 256.108 16.0847C255.918 16.4868 255.739 16.878 255.571 17.258C255.403 17.6381 255.246 17.9917 255.1 18.3187C254.954 18.6458 254.837 18.9154 254.748 19.1275H253.713ZM261.143 20.4003V11.2121H262.404V18.0138C262.687 17.5453 263.034 17.0106 263.445 16.4095C263.857 15.8084 264.294 15.1963 264.759 14.5732C265.223 13.95 265.692 13.3446 266.165 12.7568C266.638 12.169 267.083 11.6541 267.499 11.2121H268.52V20.4003H267.26V13.2274C267.012 13.5103 266.742 13.8373 266.45 14.2086C266.158 14.5798 265.858 14.9754 265.548 15.3952C265.239 15.8151 264.927 16.2504 264.613 16.7012C264.299 17.152 263.996 17.5961 263.704 18.0337C263.412 18.4712 263.14 18.8933 262.888 19.2999C262.636 19.7065 262.413 20.0733 262.218 20.4003H261.143ZM274.371 12.2463C274.035 12.2463 273.714 12.2728 273.409 12.3259C273.104 12.3789 272.832 12.4717 272.593 12.6043C272.354 12.7369 272.164 12.9181 272.023 13.1479C271.881 13.3777 271.811 13.665 271.811 14.0097C271.811 14.6638 272.021 15.1168 272.441 15.3687C272.861 15.6206 273.491 15.7466 274.331 15.7466H275.658V12.2861C275.561 12.2861 275.446 12.2817 275.313 12.2728C275.198 12.264 275.063 12.2574 274.909 12.2529C274.754 12.2485 274.575 12.2463 274.371 12.2463ZM274.477 11.1193C274.663 11.1193 274.862 11.1237 275.074 11.1326C275.287 11.1414 275.501 11.1547 275.718 11.1724C275.935 11.19 276.149 11.2121 276.361 11.2387C276.574 11.2652 276.768 11.3005 276.945 11.3447V20.4003H275.658V16.8073H274.557C274.433 16.8073 274.303 16.805 274.166 16.8006C274.028 16.7962 273.845 16.7807 273.615 16.7542C273.456 16.9664 273.283 17.2138 273.097 17.4967C272.912 17.7795 272.726 18.0801 272.54 18.3983C272.354 18.7165 272.171 19.0479 271.99 19.3927C271.808 19.7374 271.642 20.0733 271.492 20.4003H270.139C270.28 20.0556 270.448 19.6976 270.643 19.3264C270.838 18.9551 271.039 18.6016 271.247 18.2657C271.454 17.9298 271.654 17.6182 271.844 17.331C272.034 17.0437 272.2 16.8073 272.341 16.6216C272.138 16.5598 271.926 16.4714 271.704 16.3565C271.483 16.2416 271.28 16.0825 271.094 15.8792C270.908 15.6759 270.756 15.4217 270.636 15.1168C270.517 14.8118 270.457 14.4472 270.457 14.023C270.457 13.5456 270.55 13.1258 270.736 12.7634C270.922 12.401 271.189 12.0983 271.539 11.8552C271.888 11.6121 272.31 11.4287 272.806 11.3049C273.301 11.1812 273.858 11.1193 274.477 11.1193ZM86.3158 36.8056C86.2274 36.5935 86.1102 36.3239 85.9642 35.9968C85.8183 35.6698 85.6613 35.3162 85.4932 34.9361C85.3252 34.5561 85.1461 34.1649 84.9559 33.7628C84.7657 33.3606 84.5866 32.9805 84.4185 32.6225C84.2505 32.2645 84.0935 31.9441 83.9475 31.6613C83.8016 31.3784 83.6844 31.1619 83.596 31.0116C83.4987 32.0546 83.4191 33.1838 83.3571 34.3992C83.2952 35.6145 83.2421 36.8409 83.1979 38.0784H81.9375C81.9729 37.2829 82.0127 36.4808 82.0569 35.672C82.1011 34.8632 82.152 34.0677 82.2095 33.2854C82.267 32.5032 82.3289 31.7408 82.3952 30.9983C82.4616 30.2559 82.5345 29.5532 82.6142 28.8902H83.7419C83.9807 29.2791 84.2372 29.7388 84.5114 30.2691C84.7856 30.7995 85.0598 31.3541 85.334 31.9331C85.6082 32.512 85.8736 33.091 86.1301 33.6699C86.3866 34.2489 86.621 34.777 86.8333 35.2543C87.0455 34.777 87.2799 34.2489 87.5364 33.6699C87.7929 33.091 88.0583 32.512 88.3325 31.9331C88.6067 31.3541 88.8809 30.7995 89.1551 30.2691C89.4293 29.7388 89.6858 29.2791 89.9246 28.8902H91.0524C91.3531 31.8513 91.5786 34.914 91.729 38.0784H90.4686C90.4244 36.8409 90.3713 35.6145 90.3094 34.3992C90.2475 33.1838 90.1679 32.0546 90.0706 31.0116C89.9821 31.1619 89.8649 31.3784 89.719 31.6613C89.573 31.9441 89.416 32.2645 89.248 32.6225C89.0799 32.9805 88.9008 33.3606 88.7106 33.7628C88.5205 34.1649 88.3413 34.5561 88.1733 34.9361C88.0052 35.3162 87.8482 35.6698 87.7023 35.9968C87.5563 36.3239 87.4391 36.5935 87.3507 36.8056H86.3158ZM93.7457 38.0784V28.8902H99.3579V29.9907H95.0326V32.722H98.8803V33.7959H95.0326V36.978H99.6896V38.0784H93.7457ZM101.613 38.0784V40.5312H100.393V36.978H101.361C101.812 36.4653 102.16 35.8974 102.403 35.2742C102.646 34.6511 102.823 33.9926 102.934 33.2987C103.044 32.6048 103.11 31.8867 103.133 31.1442C103.155 30.4017 103.17 29.6504 103.179 28.8902H108.38V36.978H109.534V40.5312H108.314V38.0784H101.613ZM104.439 29.9907C104.413 30.5741 104.384 31.1685 104.353 31.774C104.322 32.3794 104.256 32.9805 104.154 33.5771C104.052 34.1738 103.904 34.7594 103.71 35.3339C103.515 35.9084 103.241 36.4564 102.887 36.978H107.093V29.9907H104.439ZM110.914 38.0784V28.8902H112.174V35.6919C112.457 35.2234 112.805 34.6886 113.216 34.0876C113.627 33.4865 114.065 32.8744 114.529 32.2513C114.994 31.6281 115.463 31.0226 115.936 30.4349C116.409 29.8471 116.853 29.3322 117.269 28.8902H118.291V38.0784H117.03V30.9055C116.783 31.1884 116.513 31.5154 116.221 31.8867C115.929 32.2579 115.628 32.6535 115.319 33.0733C115.009 33.4932 114.697 33.9285 114.383 34.3793C114.069 34.8301 113.767 35.2742 113.475 35.7118C113.183 36.1493 112.911 36.5714 112.659 36.978C112.407 37.3846 112.183 37.7514 111.989 38.0784H110.914ZM127.565 36.978H128.719V40.5312H127.499V38.0784H120.573V28.8902H121.86V36.978H126.278V28.8902H127.565V36.978ZM130.099 38.0784V28.8902H131.359V35.6919C131.642 35.2234 131.99 34.6886 132.401 34.0876C132.812 33.4865 133.25 32.8744 133.714 32.2513C134.179 31.6281 134.648 31.0226 135.121 30.4349C135.594 29.8471 136.038 29.3322 136.454 28.8902H137.476V38.0784H136.215V30.9055C135.968 31.1884 135.698 31.5154 135.406 31.8867C135.114 32.2579 134.813 32.6535 134.504 33.0733C134.194 33.4932 133.882 33.9285 133.568 34.3793C133.254 34.8301 132.952 35.2742 132.66 35.7118C132.368 36.1493 132.096 36.5714 131.844 36.978C131.592 37.3846 131.368 37.7514 131.174 38.0784H130.099ZM145.543 28.8902H146.829V38.0784H145.543V33.8357H141.045V38.0784H139.758V28.8902H141.045V32.722H145.543V28.8902ZM153.065 38.2773C152.42 38.2773 151.831 38.1712 151.301 37.9591C150.77 37.747 150.314 37.4376 149.934 37.031C149.554 36.6244 149.26 36.1228 149.052 35.5261C148.844 34.9295 148.74 34.2467 148.74 33.4777C148.74 32.7087 148.857 32.0259 149.092 31.4292C149.326 30.8326 149.642 30.331 150.04 29.9244C150.438 29.5178 150.903 29.2084 151.433 28.9963C151.964 28.7842 152.53 28.6781 153.132 28.6781C153.512 28.6781 153.855 28.7046 154.16 28.7576C154.465 28.8107 154.73 28.8725 154.956 28.9433C155.181 29.014 155.365 29.0847 155.506 29.1554C155.648 29.2261 155.745 29.2791 155.798 29.3145L155.427 30.3752C155.347 30.3222 155.232 30.2647 155.082 30.2028C154.932 30.141 154.761 30.0791 154.571 30.0172C154.381 29.9553 154.173 29.9045 153.948 29.8647C153.722 29.825 153.494 29.8051 153.264 29.8051C152.778 29.8051 152.34 29.889 151.951 30.057C151.562 30.2249 151.23 30.468 150.956 30.7862C150.681 31.1044 150.471 31.4911 150.325 31.9463C150.18 32.4015 150.107 32.912 150.107 33.4777C150.107 34.0257 150.171 34.5251 150.299 34.9759C150.427 35.4267 150.62 35.8134 150.876 36.136C151.133 36.4587 151.453 36.7084 151.838 36.8851C152.223 37.0619 152.672 37.1503 153.185 37.1503C153.777 37.1503 154.268 37.0884 154.657 36.9647C155.047 36.8409 155.338 36.7305 155.533 36.6332L155.865 37.6939C155.803 37.7381 155.692 37.7934 155.533 37.8596C155.374 37.9259 155.175 37.99 154.936 38.0519C154.697 38.1138 154.419 38.1668 154.1 38.211C153.782 38.2552 153.437 38.2773 153.065 38.2773ZM164.144 28.8902C163.87 29.1908 163.56 29.5244 163.215 29.8912C162.87 30.2581 162.51 30.6337 162.134 31.0182C161.758 31.4027 161.384 31.7806 161.013 32.1518C160.641 32.5231 160.292 32.8678 159.964 33.186C160.345 33.4512 160.747 33.7782 161.172 34.1671C161.596 34.5561 162.012 34.9715 162.419 35.4134C162.826 35.8554 163.208 36.3062 163.567 36.7658C163.925 37.2254 164.223 37.663 164.462 38.0784H162.95C162.684 37.663 162.379 37.2453 162.034 36.8255C161.689 36.4056 161.324 36.0035 160.94 35.6189C160.555 35.2344 160.166 34.8787 159.772 34.5516C159.378 34.2246 158.996 33.9462 158.624 33.7163V38.0784H157.337V28.8902H158.624V32.9473C158.934 32.6557 159.274 32.3264 159.646 31.9596C160.017 31.5928 160.385 31.2237 160.747 30.8525C161.11 30.4813 161.453 30.1255 161.775 29.7852C162.098 29.4449 162.37 29.1466 162.591 28.8902H164.144ZM165.311 33.4777C165.311 32.691 165.428 31.9972 165.663 31.3961C165.897 30.795 166.216 30.2934 166.618 29.8912C167.021 29.4891 167.489 29.1863 168.025 28.983C168.56 28.7797 169.128 28.6781 169.729 28.6781C170.322 28.6781 170.881 28.7797 171.408 28.983C171.934 29.1863 172.396 29.4891 172.794 29.8912C173.192 30.2934 173.508 30.795 173.743 31.3961C173.977 31.9972 174.094 32.691 174.094 33.4777C174.094 34.2644 173.977 34.9582 173.743 35.5593C173.508 36.1603 173.192 36.662 172.794 37.0641C172.396 37.4663 171.934 37.769 171.408 37.9723C170.881 38.1756 170.322 38.2773 169.729 38.2773C169.128 38.2773 168.56 38.1756 168.025 37.9723C167.489 37.769 167.021 37.4663 166.618 37.0641C166.216 36.662 165.897 36.1603 165.663 35.5593C165.428 34.9582 165.311 34.2644 165.311 33.4777ZM166.665 33.4777C166.665 34.0346 166.735 34.5406 166.877 34.9958C167.018 35.451 167.22 35.8377 167.481 36.1559C167.741 36.4741 168.06 36.7194 168.436 36.8918C168.812 37.0641 169.234 37.1503 169.703 37.1503C170.172 37.1503 170.592 37.0641 170.963 36.8918C171.335 36.7194 171.651 36.4741 171.912 36.1559C172.173 35.8377 172.374 35.451 172.516 34.9958C172.657 34.5406 172.728 34.0346 172.728 33.4777C172.728 32.9208 172.657 32.4148 172.516 31.9596C172.374 31.5044 172.173 31.1177 171.912 30.7995C171.651 30.4813 171.335 30.236 170.963 30.0636C170.592 29.8912 170.172 29.8051 169.703 29.8051C169.234 29.8051 168.812 29.8912 168.436 30.0636C168.06 30.236 167.741 30.4813 167.481 30.7995C167.22 31.1177 167.018 31.5044 166.877 31.9596C166.735 32.4148 166.665 32.9208 166.665 33.4777ZM181.405 28.8902V30.0039H177.292V38.0784H176.005V28.8902H181.405ZM182.387 33.4777C182.387 32.691 182.504 31.9972 182.738 31.3961C182.973 30.795 183.291 30.2934 183.694 29.8912C184.096 29.4891 184.565 29.1863 185.1 28.983C185.635 28.7797 186.203 28.6781 186.805 28.6781C187.397 28.6781 187.957 28.7797 188.483 28.983C189.009 29.1863 189.472 29.4891 189.87 29.8912C190.268 30.2934 190.584 30.795 190.818 31.3961C191.053 31.9972 191.17 32.691 191.17 33.4777C191.17 34.2644 191.053 34.9582 190.818 35.5593C190.584 36.1603 190.268 36.662 189.87 37.0641C189.472 37.4663 189.009 37.769 188.483 37.9723C187.957 38.1756 187.397 38.2773 186.805 38.2773C186.203 38.2773 185.635 38.1756 185.1 37.9723C184.565 37.769 184.096 37.4663 183.694 37.0641C183.291 36.662 182.973 36.1603 182.738 35.5593C182.504 34.9582 182.387 34.2644 182.387 33.4777ZM183.74 33.4777C183.74 34.0346 183.811 34.5406 183.952 34.9958C184.094 35.451 184.295 35.8377 184.556 36.1559C184.817 36.4741 185.135 36.7194 185.511 36.8918C185.887 37.0641 186.31 37.1503 186.778 37.1503C187.247 37.1503 187.667 37.0641 188.039 36.8918C188.41 36.7194 188.726 36.4741 188.987 36.1559C189.248 35.8377 189.449 35.451 189.591 34.9958C189.733 34.5406 189.803 34.0346 189.803 33.4777C189.803 32.9208 189.733 32.4148 189.591 31.9596C189.449 31.5044 189.248 31.1177 188.987 30.7995C188.726 30.4813 188.41 30.236 188.039 30.0636C187.667 29.8912 187.247 29.8051 186.778 29.8051C186.31 29.8051 185.887 29.8912 185.511 30.0636C185.135 30.236 184.817 30.4813 184.556 30.7995C184.295 31.1177 184.094 31.5044 183.952 31.9596C183.811 32.4148 183.74 32.9208 183.74 33.4777ZM195.774 33.4777C195.774 32.691 195.891 31.9972 196.125 31.3961C196.36 30.795 196.678 30.2934 197.081 29.8912C197.483 29.4891 197.952 29.1863 198.487 28.983C199.022 28.7797 199.59 28.6781 200.192 28.6781C200.784 28.6781 201.344 28.7797 201.87 28.983C202.396 29.1863 202.859 29.4891 203.257 29.8912C203.655 30.2934 203.971 30.795 204.205 31.3961C204.44 31.9972 204.557 32.691 204.557 33.4777C204.557 34.2644 204.44 34.9582 204.205 35.5593C203.971 36.1603 203.655 36.662 203.257 37.0641C202.859 37.4663 202.396 37.769 201.87 37.9723C201.344 38.1756 200.784 38.2773 200.192 38.2773C199.59 38.2773 199.022 38.1756 198.487 37.9723C197.952 37.769 197.483 37.4663 197.081 37.0641C196.678 36.662 196.36 36.1603 196.125 35.5593C195.891 34.9582 195.774 34.2644 195.774 33.4777ZM197.127 33.4777C197.127 34.0346 197.198 34.5406 197.339 34.9958C197.481 35.451 197.682 35.8377 197.943 36.1559C198.204 36.4741 198.522 36.7194 198.898 36.8918C199.274 37.0641 199.697 37.1503 200.165 37.1503C200.634 37.1503 201.054 37.0641 201.426 36.8918C201.797 36.7194 202.113 36.4741 202.374 36.1559C202.635 35.8377 202.837 35.451 202.978 34.9958C203.12 34.5406 203.19 34.0346 203.19 33.4777C203.19 32.9208 203.12 32.4148 202.978 31.9596C202.837 31.5044 202.635 31.1177 202.374 30.7995C202.113 30.4813 201.797 30.236 201.426 30.0636C201.054 29.8912 200.634 29.8051 200.165 29.8051C199.697 29.8051 199.274 29.8912 198.898 30.0636C198.522 30.236 198.204 30.4813 197.943 30.7995C197.682 31.1177 197.481 31.5044 197.339 31.9596C197.198 32.4148 197.127 32.9208 197.127 33.4777ZM207.754 29.9907V32.3242H208.895C209.541 32.3242 210.118 32.3772 210.627 32.4833C211.135 32.5894 211.567 32.7595 211.92 32.9938C212.274 33.228 212.544 33.5285 212.73 33.8953C212.916 34.2622 213.008 34.7107 213.008 35.2411C213.008 36.2134 212.655 36.9448 211.947 37.4354C211.239 37.9259 210.24 38.1712 208.948 38.1712C208.763 38.1712 208.562 38.1668 208.345 38.158C208.128 38.1491 207.911 38.1359 207.695 38.1182C207.478 38.1005 207.264 38.0784 207.051 38.0519C206.839 38.0254 206.644 37.99 206.467 37.9458V28.8902H212.146V29.9907H207.754ZM209.055 37.0442C209.4 37.0442 209.729 37.0177 210.043 36.9647C210.357 36.9117 210.633 36.8166 210.872 36.6796C211.111 36.5426 211.301 36.3592 211.443 36.1294C211.584 35.8996 211.655 35.6079 211.655 35.2543C211.655 34.8831 211.591 34.5782 211.463 34.3395C211.334 34.1008 211.151 33.9108 210.912 33.7694C210.673 33.628 210.379 33.5285 210.03 33.4711C209.68 33.4136 209.285 33.3849 208.842 33.3849H207.754V37.0045C207.852 37.0133 207.967 37.0221 208.099 37.031C208.214 37.0398 208.351 37.0442 208.511 37.0442H209.055ZM217.121 28.7974C218.413 28.7974 219.406 29.0427 220.1 29.5333C220.794 30.0238 221.141 30.7553 221.141 31.7276C221.141 32.2579 221.046 32.7109 220.856 33.0866C220.666 33.4622 220.392 33.7672 220.034 34.0014C219.675 34.2356 219.24 34.4058 218.727 34.5119C218.214 34.6179 217.634 34.671 216.989 34.671H215.967V38.0784H214.68V29.0228C215.043 28.9344 215.447 28.8748 215.894 28.8438C216.341 28.8129 216.75 28.7974 217.121 28.7974ZM217.227 29.9244C216.679 29.9244 216.259 29.9377 215.967 29.9642V33.5705H216.936C217.378 33.5705 217.776 33.5418 218.13 33.4843C218.483 33.4269 218.782 33.3296 219.025 33.1926C219.268 33.0556 219.456 32.8678 219.589 32.6291C219.722 32.3905 219.788 32.0855 219.788 31.7143C219.788 31.3607 219.72 31.0691 219.582 30.8392C219.445 30.6094 219.26 30.426 219.025 30.289C218.791 30.152 218.519 30.057 218.209 30.0039C217.9 29.9509 217.572 29.9244 217.227 29.9244ZM228.89 38.0784C228.739 37.6807 228.598 37.2895 228.465 36.905C228.333 36.5205 228.195 36.1294 228.054 35.7316H223.888L223.052 38.0784H221.712C222.066 37.1061 222.397 36.2067 222.707 35.3803C223.017 34.5538 223.32 33.7694 223.616 33.0269C223.912 32.2844 224.206 31.5751 224.498 30.8989C224.79 30.2227 225.095 29.5532 225.414 28.8902H226.594C226.913 29.5532 227.218 30.2227 227.51 30.8989C227.802 31.5751 228.096 32.2844 228.392 33.0269C228.689 33.7694 228.991 34.5538 229.301 35.3803C229.611 36.2067 229.942 37.1061 230.296 38.0784H228.89ZM227.682 34.671C227.399 33.902 227.119 33.1573 226.84 32.4369C226.561 31.7165 226.272 31.0249 225.971 30.3619C225.661 31.0249 225.367 31.7165 225.089 32.4369C224.81 33.1573 224.534 33.902 224.259 34.671H227.682ZM232.326 32.7087H233.016C233.308 32.7087 233.604 32.6866 233.905 32.6424C234.206 32.5982 234.48 32.5164 234.727 32.3971C234.975 32.2778 235.179 32.1165 235.338 31.9132C235.497 31.7099 235.577 31.4536 235.577 31.1442C235.577 30.7464 235.406 30.4216 235.066 30.1697C234.725 29.9178 234.272 29.7918 233.706 29.7918C233.219 29.7918 232.782 29.8471 232.392 29.9575C232.003 30.068 231.716 30.1807 231.53 30.2956L231.119 29.2482C231.225 29.1775 231.369 29.109 231.55 29.0427C231.731 28.9764 231.935 28.9167 232.16 28.8637C232.386 28.8107 232.631 28.7687 232.897 28.7378C233.162 28.7068 233.436 28.6913 233.719 28.6913C234.179 28.6913 234.604 28.74 234.993 28.8372C235.382 28.9344 235.718 29.0825 236.001 29.2814C236.284 29.4802 236.505 29.7321 236.665 30.0371C236.824 30.342 236.903 30.7022 236.903 31.1177C236.903 31.5419 236.768 31.9397 236.499 32.3109C236.229 32.6822 235.833 32.9518 235.311 33.1197C235.577 33.1904 235.831 33.2899 236.074 33.418C236.317 33.5462 236.53 33.7097 236.711 33.9086C236.892 34.1075 237.038 34.3395 237.149 34.6047C237.259 34.8698 237.315 35.1792 237.315 35.5328C237.315 36.0189 237.224 36.4366 237.043 36.7857C236.861 37.1348 236.609 37.4199 236.286 37.6409C235.964 37.8619 235.572 38.0232 235.112 38.1248C234.652 38.2265 234.144 38.2773 233.586 38.2773C233.25 38.2773 232.932 38.253 232.631 38.2044C232.33 38.1558 232.061 38.0983 231.822 38.032C231.583 37.9657 231.375 37.8928 231.198 37.8132C231.021 37.7337 230.884 37.6674 230.787 37.6144L231.172 36.5537C231.269 36.6067 231.4 36.6686 231.563 36.7393C231.727 36.81 231.91 36.8763 232.114 36.9382C232.317 37.0001 232.543 37.0531 232.79 37.0973C233.038 37.1415 233.299 37.1636 233.573 37.1636C234.325 37.1636 234.911 37.0376 235.331 36.7857C235.751 36.5338 235.961 36.1073 235.961 35.5063C235.961 35.1527 235.888 34.8632 235.742 34.6378C235.597 34.4124 235.398 34.2334 235.145 34.1008C234.893 33.9683 234.597 33.8777 234.256 33.829C233.916 33.7804 233.547 33.7561 233.149 33.7561H232.326V32.7087ZM238.761 33.4777C238.761 32.691 238.878 31.9972 239.112 31.3961C239.347 30.795 239.665 30.2934 240.068 29.8912C240.47 29.4891 240.939 29.1863 241.474 28.983C242.009 28.7797 242.577 28.6781 243.179 28.6781C243.772 28.6781 244.331 28.7797 244.857 28.983C245.384 29.1863 245.846 29.4891 246.244 29.8912C246.642 30.2934 246.958 30.795 247.192 31.3961C247.427 31.9972 247.544 32.691 247.544 33.4777C247.544 34.2644 247.427 34.9582 247.192 35.5593C246.958 36.1603 246.642 36.662 246.244 37.0641C245.846 37.4663 245.384 37.769 244.857 37.9723C244.331 38.1756 243.772 38.2773 243.179 38.2773C242.577 38.2773 242.009 38.1756 241.474 37.9723C240.939 37.769 240.47 37.4663 240.068 37.0641C239.665 36.662 239.347 36.1603 239.112 35.5593C238.878 34.9582 238.761 34.2644 238.761 33.4777ZM240.114 33.4777C240.114 34.0346 240.185 34.5406 240.326 34.9958C240.468 35.451 240.669 35.8377 240.93 36.1559C241.191 36.4741 241.509 36.7194 241.885 36.8918C242.261 37.0641 242.684 37.1503 243.152 37.1503C243.621 37.1503 244.041 37.0641 244.413 36.8918C244.784 36.7194 245.101 36.4741 245.361 36.1559C245.622 35.8377 245.824 35.451 245.965 34.9958C246.107 34.5406 246.177 34.0346 246.177 33.4777C246.177 32.9208 246.107 32.4148 245.965 31.9596C245.824 31.5044 245.622 31.1177 245.361 30.7995C245.101 30.4813 244.784 30.236 244.413 30.0636C244.041 29.8912 243.621 29.8051 243.152 29.8051C242.684 29.8051 242.261 29.8912 241.885 30.0636C241.509 30.236 241.191 30.4813 240.93 30.7995C240.669 31.1177 240.468 31.5044 240.326 31.9596C240.185 32.4148 240.114 32.9208 240.114 33.4777ZM251.936 38.158C251.75 38.158 251.549 38.1535 251.332 38.1447C251.115 38.1359 250.899 38.1226 250.682 38.1049C250.465 38.0873 250.251 38.0652 250.038 38.0386C249.826 38.0121 249.631 37.9768 249.455 37.9326V29.0228C249.631 28.9786 249.826 28.9433 250.038 28.9167C250.251 28.8902 250.465 28.8681 250.682 28.8505C250.899 28.8328 251.113 28.8195 251.325 28.8107C251.538 28.8018 251.737 28.7974 251.922 28.7974C252.453 28.7974 252.951 28.8372 253.415 28.9167C253.879 28.9963 254.282 29.1311 254.622 29.3211C254.963 29.5112 255.23 29.7609 255.425 30.0702C255.62 30.3796 255.717 30.7597 255.717 31.2105C255.717 31.7143 255.597 32.1275 255.359 32.4502C255.12 32.7728 254.801 33.0136 254.403 33.1727C254.943 33.3318 255.372 33.5838 255.69 33.9285C256.009 34.2732 256.168 34.7593 256.168 35.3869C256.168 36.3062 255.83 36.9978 255.153 37.4619C254.476 37.9259 253.404 38.158 251.936 38.158ZM250.728 33.7959V37.031C250.826 37.0398 250.941 37.0487 251.073 37.0575C251.188 37.0663 251.323 37.073 251.478 37.0774C251.633 37.0818 251.812 37.084 252.015 37.084C252.396 37.084 252.756 37.0597 253.097 37.0111C253.437 36.9625 253.736 36.8763 253.992 36.7526C254.249 36.6288 254.454 36.4565 254.609 36.2355C254.764 36.0145 254.841 35.7361 254.841 35.4002C254.841 35.0997 254.784 34.8455 254.669 34.6378C254.554 34.4301 254.388 34.2644 254.171 34.1406C253.954 34.0169 253.696 33.9285 253.395 33.8755C253.094 33.8224 252.758 33.7959 252.387 33.7959H250.728ZM250.728 32.7617H252.082C252.4 32.7617 252.701 32.7396 252.984 32.6954C253.267 32.6512 253.512 32.5717 253.72 32.4568C253.928 32.3419 254.092 32.1916 254.211 32.006C254.33 31.8204 254.39 31.5861 254.39 31.3033C254.39 31.0381 254.328 30.8149 254.204 30.6337C254.081 30.4525 253.91 30.3067 253.694 30.1962C253.477 30.0857 253.223 30.0039 252.931 29.9509C252.639 29.8979 252.329 29.8714 252.002 29.8714C251.675 29.8714 251.418 29.8758 251.232 29.8846C251.047 29.8935 250.879 29.9067 250.728 29.9244V32.7617ZM264.129 38.0784C263.978 37.6807 263.837 37.2895 263.704 36.905C263.571 36.5205 263.434 36.1294 263.293 35.7316H259.127L258.291 38.0784H256.951C257.305 37.1061 257.636 36.2067 257.946 35.3803C258.255 34.5538 258.558 33.7694 258.855 33.0269C259.151 32.2844 259.445 31.5751 259.737 30.8989C260.029 30.2227 260.334 29.5532 260.652 28.8902H261.833C262.152 29.5532 262.457 30.2227 262.749 30.8989C263.041 31.5751 263.335 32.2844 263.631 33.0269C263.927 33.7694 264.23 34.5538 264.54 35.3803C264.849 36.2067 265.181 37.1061 265.535 38.0784H264.129ZM262.921 34.671C262.638 33.902 262.357 33.1573 262.079 32.4369C261.8 31.7165 261.51 31.0249 261.21 30.3619C260.9 31.0249 260.606 31.7165 260.327 32.4369C260.049 33.1573 259.772 33.902 259.498 34.671H262.921ZM272.567 28.8902H273.854V38.0784H272.567V33.8357H268.069V38.0784H266.782V28.8902H268.069V32.722H272.567V28.8902ZM276.136 38.0784V28.8902H277.396V35.6919C277.679 35.2234 278.026 34.6886 278.438 34.0876C278.849 33.4865 279.287 32.8744 279.751 32.2513C280.216 31.6281 280.684 31.0226 281.158 30.4349C281.631 29.8471 282.075 29.3322 282.491 28.8902H283.513V38.0784H282.252V30.9055C282.004 31.1884 281.735 31.5154 281.443 31.8867C281.151 32.2579 280.85 32.6535 280.541 33.0733C280.231 33.4932 279.919 33.9285 279.605 34.3793C279.291 34.8301 278.988 35.2742 278.696 35.7118C278.405 36.1493 278.133 36.5714 277.88 36.978C277.628 37.3846 277.405 37.7514 277.21 38.0784H276.136ZM289.364 29.9244C289.027 29.9244 288.707 29.9509 288.402 30.0039C288.097 30.057 287.825 30.1498 287.586 30.2824C287.347 30.415 287.157 30.5962 287.015 30.826C286.874 31.0558 286.803 31.3431 286.803 31.6878C286.803 32.3419 287.013 32.7949 287.433 33.0468C287.853 33.2987 288.484 33.4247 289.324 33.4247H290.651V29.9642C290.553 29.9642 290.438 29.9598 290.306 29.9509C290.191 29.9421 290.056 29.9354 289.901 29.931C289.746 29.9266 289.567 29.9244 289.364 29.9244ZM289.47 28.7974C289.655 28.7974 289.854 28.8018 290.067 28.8107C290.279 28.8195 290.494 28.8328 290.71 28.8505C290.927 28.8681 291.141 28.8902 291.354 28.9167C291.566 28.9433 291.761 28.9786 291.938 29.0228V38.0784H290.651V34.4853H289.549C289.425 34.4853 289.295 34.4831 289.158 34.4787C289.021 34.4743 288.837 34.4588 288.607 34.4323C288.448 34.6444 288.276 34.8919 288.09 35.1748C287.904 35.4576 287.718 35.7582 287.533 36.0764C287.347 36.3946 287.163 36.726 286.982 37.0708C286.801 37.4155 286.635 37.7514 286.484 38.0784H285.131C285.273 37.7337 285.441 37.3757 285.635 37.0045C285.83 36.6332 286.031 36.2797 286.239 35.9438C286.447 35.6079 286.646 35.2963 286.836 35.0091C287.026 34.7218 287.192 34.4853 287.334 34.2997C287.13 34.2379 286.918 34.1495 286.697 34.0346C286.476 33.9196 286.272 33.7605 286.086 33.5572C285.901 33.3539 285.748 33.0998 285.629 32.7949C285.509 32.4899 285.45 32.1253 285.45 31.701C285.45 31.2237 285.542 30.8039 285.728 30.4415C285.914 30.0791 286.182 29.7763 286.531 29.5333C286.88 29.2902 287.303 29.1068 287.798 28.983C288.293 28.8593 288.851 28.7974 289.47 28.7974Z" fill="currentColor"/>
  <path fill-rule="evenodd" clip-rule="evenodd" d="M38.0205 51.24C37.405 51.24 36.7544 51.1442 36.2449 50.8411C36.01 50.7048 35.811 50.5601 35.6394 50.41C34.7445 49.7691 33.9062 49.079 32.8561 48.8347C32.8915 48.8379 32.9268 48.8411 32.9622 48.8444C33.0024 48.8482 33.0409 48.8498 33.0772 48.8498C33.3916 48.8498 33.5742 48.7245 33.678 48.5991C33.7818 48.4738 33.8072 48.3484 33.8069 48.3484C33.8082 48.3465 33.7702 47.7881 33.065 47.7261C32.831 47.7039 32.5954 47.6808 32.3646 47.6535C32.2091 47.6351 32.0619 47.6065 31.9227 47.5686C33.2704 47.2038 33.8815 45.9904 34.3974 44.8484C34.4677 44.6443 34.5571 44.4334 34.669 44.2148C35.3317 42.9686 37.0479 42.3454 37.0491 42.3309C37.045 42.3319 37.5869 43.9863 37.3076 45.2939C37.1745 45.9399 36.9376 46.5584 36.5586 46.6651C36.2449 46.7522 35.929 46.8348 35.6104 46.9126C34.9383 47.0759 34.9894 47.6342 34.9894 47.6355C34.9894 47.6355 35.0254 47.7358 35.1225 47.836C35.2199 47.9363 35.3784 48.0366 35.6236 48.0366C35.7007 48.0366 35.7859 48.027 35.8807 48.0042C36.2099 47.9219 36.5339 47.8367 36.8614 47.7464C36.9064 47.7338 36.9537 47.7277 37.0025 47.7277C37.3757 47.7277 37.8543 48.0723 38.3101 48.4625C39.3618 49.3432 40.0005 50.9526 39.9966 50.9555C40.005 50.9651 39.0626 51.24 38.0205 51.24ZM42.1406 49.574C41.7414 49.574 41.3457 49.5165 40.9963 49.3654C39.5569 48.754 39.1548 47.7435 39.4897 46.9781C39.7106 46.4819 40.177 46.1929 40.8545 46.1929C41.2322 46.1929 41.6755 46.2829 42.1785 46.4767C43.5841 47.0132 44.6921 48.9845 44.6879 48.9903C44.7001 48.9999 43.4022 49.574 42.1406 49.574ZM30.9883 48.8347C31.2422 48.7756 31.5087 48.7425 31.7912 48.7425C31.8343 48.7425 31.878 48.7431 31.9224 48.7447C31.8201 48.7486 31.7157 48.7563 31.609 48.7691C31.4032 48.7923 31.1959 48.8148 30.9883 48.8347ZM46.1391 47.3761C45.9039 47.3761 45.6724 47.3494 45.4532 47.2867C43.9541 46.8679 43.4205 45.9216 43.6449 45.1209C43.8191 44.5138 44.3591 44.1432 45.2301 44.1432C45.5236 44.1432 45.8544 44.1853 46.2214 44.2743C47.6814 44.6224 49.0397 46.4282 49.0362 46.4343C49.0513 46.4436 47.5274 47.3761 46.1391 47.3761ZM39.5579 45.9043C39.3824 45.9043 39.2098 45.8621 39.0478 45.7779C38.3008 45.399 38.0684 44.3495 38.5393 43.0136C39.0102 41.6977 40.5974 40.8598 40.6099 40.8395C40.6112 40.8626 41.6015 42.8989 41.1708 44.2878C40.8288 45.3765 40.1766 45.9046 39.5579 45.9043ZM49.8921 44.6732C49.7816 44.6732 49.6716 44.6658 49.5636 44.6497C48.0256 44.4295 47.3715 43.5636 47.485 42.7411C47.5891 42.0121 48.2326 41.538 49.3897 41.538C49.5556 41.538 49.7321 41.5479 49.9188 41.5679C51.408 41.7209 52.9955 43.3309 52.9923 43.337C53.0103 43.3463 51.3697 44.6732 49.8921 44.6732ZM43.4237 44.058C43.2974 44.058 43.1704 44.0355 43.0457 43.9905C42.2595 43.7118 41.8863 42.7044 42.1682 41.32C42.4511 39.9556 43.9055 38.919 43.9094 38.9007C43.9129 38.9174 45.1687 40.8064 44.9322 42.2406C44.7284 43.4476 44.0833 44.058 43.4237 44.058ZM46.9832 41.7279C46.9038 41.7279 46.8228 41.7189 46.7421 41.7013C45.9276 41.5277 45.4243 40.5788 45.5133 39.1735C45.6088 37.7863 46.9096 36.568 46.9122 36.5494C46.9167 36.5652 48.4132 38.2723 48.3699 39.7222C48.3268 41.0314 47.6916 41.7279 46.9832 41.7279ZM53.3076 41.5007C53.297 41.5007 53.2861 41.5007 53.2752 41.5004C51.724 41.4853 50.9596 40.7122 50.9638 39.8845C50.9731 39.043 51.7211 38.4388 53.2209 38.3995C53.2446 38.3989 53.2687 38.3986 53.2929 38.3986C54.775 38.3986 56.5059 39.7393 56.5046 39.7457C56.5222 39.7528 54.8675 41.501 53.3076 41.5007ZM50.1872 38.9563C50.1544 38.9563 50.1216 38.9546 50.0885 38.9521C49.2589 38.8875 48.635 38.0132 48.5354 36.6092C48.447 35.2213 49.5765 33.8417 49.5759 33.8237C49.5816 33.8372 51.291 35.3328 51.4398 36.7757C51.5787 38.1684 50.9593 38.9563 50.1872 38.9563ZM56.0221 37.9251C54.8039 37.9251 54.1244 37.3215 54.0312 36.5954C53.9907 36.2829 54.0646 35.9863 54.2465 35.7265C54.5455 35.2942 55.1523 34.966 56.0809 34.8134C56.2262 34.7893 56.376 34.7783 56.528 34.7783C57.9269 34.7783 59.5183 35.6999 59.517 35.7076L59.5128 35.713C59.5324 35.7188 58.0972 37.7069 56.5383 37.8917C56.3567 37.9142 56.1847 37.9251 56.0221 37.9251ZM52.9695 35.7899C52.1682 35.7895 51.4655 35.0123 51.1907 33.672C50.9197 32.3049 51.8664 30.7772 51.8599 30.763L51.8631 30.7582C51.857 30.7618 53.7618 32.0211 54.0996 33.4405C54.3092 34.3277 54.1633 35.0098 53.8251 35.4013C53.623 35.6381 53.3491 35.7699 53.0392 35.7879C53.0158 35.7892 52.9926 35.7899 52.9695 35.7899ZM58.3554 33.9931C57.4065 33.9931 56.8135 33.5283 56.6505 32.9108C56.4384 32.0934 57.0073 31.3043 58.4492 30.8598C58.7478 30.7659 59.0747 30.729 59.4051 30.729C60.6658 30.729 61.9791 31.2699 61.9791 31.2776C61.9971 31.2802 60.8336 33.4621 59.3077 33.8581C58.9593 33.951 58.6414 33.9931 58.3554 33.9931ZM55.3224 32.2641C54.584 32.2641 53.8627 31.5936 53.4481 30.387C53.001 29.0681 53.7355 27.4166 53.7313 27.397C53.7416 27.4102 55.7839 28.3993 56.305 29.765C56.8215 31.1362 56.3676 32.0905 55.5589 32.241C55.4802 32.2564 55.4011 32.2641 55.3224 32.2641ZM60.2415 29.7448C59.4945 29.7448 58.9789 29.3889 58.769 28.8743C58.4527 28.0871 58.9134 27.2193 60.2855 26.5697C60.787 26.3293 61.3977 26.2528 61.9708 26.2528C62.9634 26.2528 63.8428 26.4823 63.8434 26.4874C63.8643 26.4884 62.9955 28.8428 61.5317 29.4506C61.0496 29.6551 60.6163 29.7448 60.2415 29.7448ZM57.1947 28.4246C56.5087 28.4246 55.7852 27.8586 55.2594 26.7992C54.6419 25.5437 55.1536 23.7829 55.1459 23.761C55.1604 23.7742 57.3175 24.4791 58.0111 25.7725C58.7047 27.0756 58.3817 28.0936 57.5984 28.3568C57.4666 28.4025 57.3316 28.4246 57.1947 28.4246ZM59.7973 25.4939C59.6629 25.4939 59.5292 25.472 59.3987 25.4283C58.58 25.1531 58.1673 24.2278 58.5122 22.8713C58.8574 21.5393 60.633 20.2279 60.6343 20.2051C60.6532 20.2051 61.9216 22.1015 61.5317 23.6264C61.2109 24.8954 60.4974 25.4939 59.7973 25.4939Z" fill="#E5B169"/>
  <path fill-rule="evenodd" clip-rule="evenodd" d="M25.8236 51.24C24.7816 51.24 23.8388 50.9651 23.8475 50.9555C23.843 50.9526 24.482 49.3432 25.5337 48.4625C25.9895 48.0723 26.4681 47.7277 26.8419 47.7277C26.8908 47.7277 26.938 47.7338 26.9833 47.7464C27.3096 47.8367 27.6349 47.9219 27.9634 48.0042C28.0579 48.027 28.1434 48.0366 28.2202 48.0366C28.4654 48.0366 28.6246 47.9363 28.7216 47.836C28.819 47.7358 28.855 47.6355 28.855 47.6355C28.855 47.6342 28.9048 47.0759 28.234 46.9126C27.9155 46.8348 27.5995 46.7522 27.2858 46.6651C26.9062 46.5584 26.6696 45.9399 26.5372 45.2939C26.2585 43.9918 26.7953 42.3457 26.7947 42.3309C26.8033 42.348 28.514 42.9712 29.1755 44.2148C29.2873 44.4334 29.3764 44.6443 29.4471 44.8484C29.9623 45.9904 30.574 47.2038 31.9221 47.5686C32.0613 47.6065 32.2085 47.6351 32.3641 47.6535C32.5948 47.6808 32.8305 47.7039 33.0645 47.7261C33.7697 47.7881 33.8076 48.3465 33.8063 48.3484C33.8066 48.3484 33.7812 48.4738 33.6774 48.5991C33.5736 48.7245 33.391 48.8498 33.0767 48.8498C33.0403 48.8498 33.0018 48.8482 32.9616 48.8444C32.9262 48.8411 32.8909 48.8379 32.8555 48.8347C32.6479 48.8148 32.4406 48.7923 32.2345 48.7691C32.1281 48.7563 32.024 48.7486 31.9218 48.7447C31.8774 48.7431 31.8337 48.7425 31.7906 48.7425C31.5081 48.7425 31.2416 48.7756 30.9877 48.8347C29.9382 49.0793 29.0996 49.7694 28.2048 50.41C28.0334 50.5601 27.8335 50.7048 27.5995 50.8411C27.0897 51.1442 26.4395 51.24 25.8236 51.24ZM21.7039 49.574C20.4426 49.574 19.1447 48.9999 19.1562 48.9903C19.1517 48.9845 20.2594 47.0132 21.6656 46.4767C22.1687 46.2829 22.6119 46.1929 22.9899 46.1929C23.6672 46.1929 24.1336 46.4819 24.3547 46.9781C24.6896 47.7435 24.2869 48.754 22.8475 49.3654C22.4984 49.5165 22.1031 49.574 21.7039 49.574ZM17.704 47.3761C16.3158 47.3761 14.7928 46.4436 14.8073 46.4343C14.8038 46.4282 16.1634 44.6224 17.6214 44.2743C17.9888 44.1853 18.3199 44.1432 18.6133 44.1432C19.4847 44.1432 20.0254 44.5141 20.1999 45.1209C20.4227 45.9216 19.8901 46.8679 18.3903 47.2867C18.1707 47.3494 17.9396 47.3761 17.704 47.3761ZM24.2869 45.9043C23.6678 45.9043 23.0156 45.3765 22.6733 44.2878C22.2416 42.8986 23.2332 40.8614 23.2345 40.8395C23.2458 40.8591 24.8343 41.6974 25.3045 43.0136C25.7761 44.3495 25.5433 45.399 24.797 45.7779C24.6347 45.8621 24.4621 45.9046 24.2869 45.9043ZM13.9523 44.6732C12.475 44.6732 10.8351 43.3463 10.8512 43.337C10.848 43.3309 12.4371 41.7209 13.9256 41.5679C14.1127 41.5479 14.2888 41.538 14.4547 41.538C15.6112 41.538 16.2544 42.0124 16.3582 42.7411C16.4723 43.5636 15.8188 44.4295 14.2808 44.6497C14.1725 44.6658 14.0629 44.6732 13.9523 44.6732ZM20.4204 44.058C19.7608 44.0577 19.1161 43.4473 18.9126 42.2406C18.6763 40.8061 19.9318 38.9164 19.9351 38.9007C19.9379 38.9183 21.3931 39.9553 21.6759 41.32C21.9568 42.7044 21.5849 43.7118 20.7984 43.9905C20.674 44.0355 20.5467 44.058 20.4204 44.058ZM16.8606 41.7279C16.1518 41.7276 15.5167 41.0314 15.4743 39.7222C15.4306 38.2726 16.9265 36.5661 16.9307 36.5494C16.9348 36.5687 18.2357 37.7866 18.3302 39.1735C18.4205 40.5788 17.9168 41.5277 17.1023 41.7013C17.0213 41.7189 16.9406 41.7279 16.8606 41.7279ZM10.5362 41.5007C8.97659 41.5007 7.32252 39.7528 7.33956 39.7457C7.33892 39.7393 9.06917 38.3986 10.5513 38.3986C10.5754 38.3986 10.5995 38.3989 10.6233 38.3995C12.1224 38.4388 12.872 39.043 12.88 39.8845C12.8848 40.7122 12.1205 41.4853 10.5686 41.5004C10.558 41.5007 10.5471 41.5007 10.5362 41.5007ZM23.2345 40.8395C23.2345 40.8398 23.2342 40.8395 23.2345 40.8395ZM13.6566 38.9563C12.8855 38.9563 12.2658 38.1684 12.4043 36.7757C12.5528 35.3321 14.2638 33.8359 14.2683 33.8237C14.2676 33.841 15.3975 35.2209 15.3087 36.6092C15.2097 38.0132 14.5855 38.8875 13.7553 38.9521C13.7222 38.9546 13.6894 38.9563 13.6566 38.9563ZM7.82234 37.9251C7.66002 37.9251 7.48806 37.9142 7.30677 37.8917C5.74559 37.7069 4.3117 35.7188 4.33099 35.713L4.32713 35.7076C4.32584 35.6999 5.91724 34.7783 7.31609 34.7783C7.46813 34.7783 7.61824 34.7893 7.76352 34.8134C8.69277 34.966 9.29802 35.2942 9.59856 35.7265C9.77984 35.9863 9.85313 36.2829 9.81327 36.5954C9.71942 37.3215 9.03959 37.9251 7.82234 37.9251ZM10.8746 35.7899C10.8515 35.7899 10.828 35.7892 10.8049 35.7879C10.4957 35.7699 10.2215 35.6381 10.0193 35.4013C9.68084 35.0098 9.53459 34.3277 9.74481 33.4405C10.082 32.0211 11.9871 30.7618 11.9816 30.7582L11.9839 30.763C11.9775 30.7772 12.9247 32.3049 12.6534 33.672C12.3792 35.0123 11.676 35.7899 10.8746 35.7899ZM5.48877 33.9931C5.20302 33.9931 4.88481 33.951 4.5367 33.8581C3.01088 33.4621 1.84699 31.2802 1.86531 31.2776C1.86531 31.2699 3.17834 30.729 4.43866 30.729C4.76909 30.729 5.09599 30.7659 5.39459 30.8598C6.83684 31.3043 7.40577 32.0934 7.19395 32.9108C7.03099 33.5283 6.43763 33.9931 5.48877 33.9931ZM8.52145 32.2641C8.4427 32.2641 8.36363 32.2564 8.28488 32.241C7.47584 32.0905 7.02263 31.1362 7.54045 29.765C8.0602 28.3993 10.1026 27.4099 10.1132 27.397C10.1077 27.4163 10.8438 29.0681 10.3957 30.387C9.9817 31.5936 9.26042 32.2641 8.52145 32.2641ZM3.60263 29.7448C3.22752 29.7448 2.79359 29.6551 2.31113 29.4506C0.848951 28.8428 -0.020835 26.4884 0.000379332 26.4874C0.00102219 26.4823 0.880451 26.2528 1.87334 26.2528C2.44677 26.2528 3.05781 26.3293 3.55956 26.5697C4.92981 27.2193 5.39138 28.0871 5.07477 28.8743C4.86552 29.3889 4.34995 29.7448 3.60263 29.7448ZM6.64881 28.4246C6.5122 28.4246 6.3772 28.4021 6.24542 28.3568C5.46209 28.0936 5.13874 27.0756 5.8327 25.7725C6.52634 24.4801 8.68088 23.7752 8.69695 23.761C8.68924 23.7845 9.20159 25.544 8.58477 26.7992C8.05859 27.8586 7.33506 28.4246 6.64881 28.4246ZM4.04684 25.4939C3.34741 25.4939 2.6332 24.895 2.31242 23.6264C1.92317 22.1015 3.19056 20.2051 3.21145 20.2051C3.21145 20.2279 4.98702 21.5393 5.33159 22.8713C5.67456 24.2278 5.26474 25.1531 4.44413 25.4283C4.31427 25.472 4.18088 25.4939 4.04684 25.4939Z" fill="#E5B169"/>
  <path fill-rule="evenodd" clip-rule="evenodd" d="M32.5667 38.8572H31.3079C22.8326 38.8572 15.9375 32.0129 15.9375 23.5999V5.72241L19.0553 5.71436L18.9868 23.5999C18.9868 30.3434 24.5144 35.8303 31.3079 35.8303H32.5667C39.3609 35.8303 44.8885 30.3434 44.8885 23.5999V5.71436L47.9375 5.72241V23.5999C47.9375 32.0129 41.0421 38.8572 32.5667 38.8572Z" fill="#E5B169"/>
  <path fill-rule="evenodd" clip-rule="evenodd" d="M33.8305 22.8572H31.1871L17.0801 7.69045L19.5147 5.71436L32.5091 19.8389L45.6469 5.71436L47.9372 7.69045L33.8305 22.8572Z" fill="#E5B169"/>
  <path fill-rule="evenodd" clip-rule="evenodd" d="M30.7949 36.5715H34.2235V22.8572H30.7949V36.5715Z" fill="#DCAC66"/>
  <path fill-rule="evenodd" clip-rule="evenodd" d="M15.9375 3.42857H47.9375V0H15.9375V3.42857Z" fill="#E5B169"/>
</svg>
