<svg width="24" height="24" viewBox="0 0 24 24" fill="none" xmlns="http://www.w3.org/2000/svg">
  <path d="M23.7466 22.496L18.1787 16.928H18.1187C19.8349 14.9045 20.7022 12.2958 20.5391 9.6475C20.376 6.99923 19.1953 4.5166 17.2438 2.71892C15.2923 0.921237 12.7213 -0.0522253 10.0686 0.00216217C7.41583 0.0565496 4.88688 1.13457 3.01073 3.01073C1.13457 4.88688 0.0565496 7.41583 0.00216217 10.0686C-0.0522253 12.7213 0.921237 15.2923 2.71892 17.2438C4.5166 19.1953 6.99923 20.376 9.6475 20.5391C12.2958 20.7022 14.9045 19.8349 16.928 18.1187C16.928 18.1187 16.928 18.1616 16.928 18.1787L22.496 23.7466C22.5756 23.8269 22.6703 23.8906 22.7747 23.9341C22.8791 23.9776 22.9911 24 23.1042 24C23.2172 24 23.3292 23.9776 23.4336 23.9341C23.538 23.8906 23.6327 23.8269 23.7124 23.7466C23.8002 23.6689 23.8711 23.5739 23.9207 23.4676C23.9703 23.3613 23.9976 23.246 24.0008 23.1287C24.004 23.0115 23.9831 22.8948 23.9394 22.786C23.8957 22.6771 23.83 22.5784 23.7466 22.496ZM10.2893 18.8211C8.59514 18.8211 6.93898 18.3187 5.5303 17.3775C4.12162 16.4362 3.02369 15.0984 2.37535 13.5332C1.727 11.9679 1.55737 10.2456 1.88789 8.58393C2.21841 6.92228 3.03425 5.39595 4.23223 4.19797C5.43022 2.99999 6.95654 2.18415 8.6182 1.85363C10.2798 1.5231 12.0022 1.69274 13.5674 2.34108C15.1327 2.98943 16.4705 4.08736 17.4118 5.49604C18.353 6.90472 18.8554 8.56088 18.8554 10.2551C18.8554 11.38 18.6338 12.4939 18.2034 13.5332C17.7729 14.5725 17.1419 15.5168 16.3465 16.3122C15.551 17.1076 14.6067 17.7386 13.5674 18.1691C12.5282 18.5996 11.4143 18.8211 10.2893 18.8211Z" fill="currentColor"/>
</svg>
