<svg width="24" height="23" viewBox="0 0 24 23" fill="none" xmlns="http://www.w3.org/2000/svg">
  <path d="M12 10.6C10.4533 10.6 9.18 10.1 8.18 9.1C7.18 8.1 6.68 6.82667 6.68 5.28C6.68 3.73333 7.18 2.46667 8.18 1.48C9.18 0.493333 10.4533 0 12 0C13.5467 0 14.82 0.493333 15.82 1.48C16.82 2.46667 17.32 3.73333 17.32 5.28C17.32 6.82667 16.82 8.1 15.82 9.1C14.82 10.1 13.5467 10.6 12 10.6ZM0 22.8V19.76C0 18.9067 0.226667 18.16 0.68 17.52C1.13333 16.88 1.72 16.3867 2.44 16.04C4.14667 15.2933 5.78 14.7333 7.34 14.36C8.9 13.9867 10.4533 13.8 12 13.8C13.5467 13.8 15.1 13.9933 16.66 14.38C18.22 14.7667 19.84 15.3333 21.52 16.08C22.2667 16.4267 22.8667 16.9133 23.32 17.54C23.7733 18.1667 24 18.9067 24 19.76V22.8H0ZM1.8 21H22.2V19.76C22.2 19.36 22.0667 18.9667 21.8 18.58C21.5333 18.1933 21.1867 17.8933 20.76 17.68C19.1867 16.9067 17.7 16.3667 16.3 16.06C14.9 15.7533 13.4667 15.6 12 15.6C10.5333 15.6 9.08667 15.7533 7.66 16.06C6.23333 16.3667 4.74667 16.9067 3.2 17.68C2.8 17.8933 2.46667 18.1933 2.2 18.58C1.93333 18.9667 1.8 19.36 1.8 19.76V21ZM12 8.8C12.9867 8.8 13.8133 8.46667 14.48 7.8C15.1467 7.13333 15.48 6.29333 15.48 5.28C15.48 4.29333 15.1467 3.46667 14.48 2.8C13.8133 2.13333 12.9867 1.8 12 1.8C11.0133 1.8 10.1867 2.13333 9.52 2.8C8.85333 3.46667 8.52 4.29333 8.52 5.28C8.52 6.29333 8.85333 7.13333 9.52 7.8C10.1867 8.46667 11.0133 8.8 12 8.8Z" fill="currentColor"/>
</svg>
