<svg width="173" height="179" viewBox="0 0 173 179" fill="none" xmlns="http://www.w3.org/2000/svg">
<g opacity="0.25">
<path d="M172.577 0.785645H0V23.9667H7.72779V199.119H82.4252V214.754C78.1419 215.937 74.9633 219.916 74.9633 224.681C74.9633 230.371 79.4731 235 85.0157 235C90.5569 235 95.0668 230.372 95.0668 224.681C95.0668 219.905 91.8722 215.915 87.5763 214.744L87.5781 199.119H164.851V23.9667H172.579L172.577 0.785645ZM89.9175 224.68C89.9175 227.53 87.7184 229.847 85.018 229.847C82.314 229.847 80.1167 227.531 80.1167 224.68C80.1167 221.829 82.3158 219.513 85.018 219.513C87.7202 219.513 89.9175 221.829 89.9175 224.68ZM159.698 193.967H12.8789V186.24H159.698V193.967ZM159.698 181.088H12.8789V23.9662H159.698V181.088ZM167.426 18.8147H5.15201V5.93581H167.426V18.8147Z" fill="white"/>
<path d="M64.4171 41.8143C68.74 41.8143 72.1214 45.3304 72.1214 49.6497V50.0935C72.1214 54.4128 68.74 57.9289 64.4171 57.9289C61.1488 57.9289 58.353 55.9399 57.1833 52.8601L52.402 54.6856C54.3029 59.7056 59.0572 63.0799 64.4005 63.0799C71.5603 63.0799 77.272 57.2531 77.272 50.0934V49.6496C77.272 42.4899 71.58 36.6631 64.4166 36.6631C58.6906 36.6631 53.6453 40.5296 52.0479 46.0706L56.9653 47.4973C57.9283 44.1518 60.9719 41.8145 64.4162 41.8145L64.4171 41.8143Z" fill="white"/>
<path d="M50.8622 99.2449C55.0252 99.2449 58.5863 96.6144 60.0688 92.7047L55.1366 90.8792C54.3946 92.8322 52.9913 94.0935 50.9233 94.0935C48.1851 94.0935 46.3669 91.8656 46.3669 89.1274V88.8057C46.3669 86.0675 48.1258 83.8395 50.864 83.8395C53.0453 83.8395 54.7593 85.3201 55.372 87.4437L60.2034 86.0135C58.9601 81.6996 55.3863 78.6882 50.9233 78.6882C45.3444 78.6882 41.2158 83.2267 41.2158 88.8055V89.1271C41.214 94.706 45.2836 99.2444 50.8626 99.2444L50.8622 99.2449Z" fill="white"/>
<path d="M50.3698 114.119H50.0895C45.0406 114.119 40.9336 118.228 40.9336 123.279C40.9336 127.045 43.3107 130.48 46.8501 131.822L48.6809 127.009C47.1052 126.411 46.0847 124.946 46.0847 123.279C46.0847 121.071 47.8796 119.27 50.0895 119.27H50.3698C52.578 119.27 54.3747 121.069 54.3747 123.279C54.3747 125.061 53.2086 126.599 51.4658 127.099L52.896 132.049C56.8003 130.92 59.5259 127.314 59.5259 123.279C59.5241 118.229 55.4185 114.119 50.3698 114.119Z" fill="white"/>
<path d="M46.7914 150.981C47.749 150.981 48.5755 151.612 48.8486 152.552L53.7987 151.121C52.8968 148.004 50.0148 145.826 46.7899 145.826C42.758 145.826 39.4756 149.105 39.4756 153.342C39.4756 157.374 42.7564 160.655 46.7899 160.655C49.7976 160.655 52.5412 158.755 53.6138 155.931L48.8003 154.1C48.4751 154.953 47.6882 155.503 46.7916 155.503C45.5986 155.503 44.6284 154.535 44.6284 153.139C44.6284 151.949 45.6004 150.981 46.7916 150.981L46.7914 150.981Z" fill="white"/>
<path d="M65.103 145.83C62.0917 145.83 59.348 147.729 58.2772 150.553L63.0907 152.384C63.4159 151.531 64.2065 150.981 65.103 150.981C66.2961 150.981 67.2645 151.949 67.2645 153.345C67.2645 154.539 66.296 155.507 65.103 155.507C64.158 155.507 63.3135 154.86 63.0458 153.938L58.0957 155.363C58.9923 158.482 61.8742 160.662 65.1046 160.662C69.1364 160.662 72.417 157.383 72.417 153.146C72.4152 149.109 69.1362 145.83 65.1027 145.83L65.103 145.83Z" fill="white"/>
<path d="M84.0947 146.036C80.0628 146.036 76.7822 149.315 76.7822 153.348C76.7822 156.356 78.6778 159.1 81.5042 160.174L83.3351 155.361C82.4852 155.036 81.9336 154.245 81.9336 153.348C81.9336 152.155 82.902 151.187 84.2963 151.187C85.4893 151.187 86.4595 152.155 86.4595 153.348C86.4595 154.294 85.8127 155.138 84.891 155.406L86.3158 160.356C89.4348 159.459 91.6145 156.577 91.6145 153.347C91.6127 149.315 88.3297 146.036 84.0947 146.036Z" fill="white"/>
<path d="M105.865 146.312L104.034 151.126C104.887 151.451 105.437 152.242 105.437 153.138C105.437 154.331 104.467 155.3 103.072 155.3C101.879 155.3 100.911 154.331 100.911 153.138C100.911 152.177 101.54 151.35 102.478 151.081L101.053 146.131C97.9356 147.027 95.7578 149.909 95.7578 153.14C95.7578 157.172 99.0368 160.452 103.272 160.452C107.304 160.452 110.586 157.173 110.586 153.14C110.588 150.13 108.687 147.387 105.864 146.312L105.865 146.312Z" fill="white"/>
<path d="M122.704 145.83C119.69 145.83 116.948 147.729 115.878 150.558L120.697 152.38C121.018 151.53 121.807 150.982 122.704 150.982C123.897 150.982 124.865 151.951 124.865 153.347C124.865 154.54 123.897 155.508 122.704 155.508C121.759 155.508 120.914 154.862 120.646 153.94L115.696 155.365C116.593 158.484 119.475 160.663 122.705 160.663C126.737 160.663 130.018 157.384 130.018 153.148C130.016 149.109 126.735 145.83 122.704 145.83Z" fill="white"/>
<path d="M82.4245 123.278V122.998C82.4245 117.949 78.3154 113.842 73.2648 113.842C69.4971 113.842 66.0637 116.219 64.7215 119.758L69.535 121.589C70.1334 120.013 71.5977 118.993 73.265 118.993C75.4732 118.993 77.2735 120.788 77.2735 122.998V123.278C77.2735 125.486 75.4749 127.283 73.265 127.283C71.4827 127.283 69.9447 126.117 69.4452 124.374L64.4951 125.804C65.6234 129.708 69.2295 132.434 73.2647 132.434C78.3169 132.432 82.4245 128.326 82.4245 123.278Z" fill="white"/>
<path d="M95.3543 119.17L93.9294 114.22C90.0216 115.345 87.2959 118.953 87.2959 122.99C87.2959 128.04 91.405 132.149 96.4519 132.149H96.7321C101.781 132.149 105.888 128.04 105.888 122.99C105.888 119.222 103.511 115.789 99.9698 114.447L98.1443 119.264C99.7182 119.862 100.739 121.325 100.739 122.99C100.739 125.198 98.9439 126.999 96.7339 126.999H96.4536C94.2454 126.999 92.4487 125.2 92.4487 122.99C92.4487 121.235 93.6402 119.663 95.3543 119.17Z" fill="white"/>
<path d="M119.916 118.991C121.698 118.991 123.237 120.157 123.736 121.9L128.686 120.47C127.558 116.565 123.952 113.84 119.916 113.84C114.866 113.84 110.757 117.949 110.757 122.996V123.276C110.757 128.325 114.866 132.432 119.916 132.432C123.682 132.432 127.118 130.055 128.46 126.516L123.646 124.685C123.048 126.26 121.584 127.281 119.916 127.281C117.708 127.281 115.908 125.486 115.908 123.276V122.996C115.908 120.788 117.706 118.991 119.916 118.991Z" fill="white"/>
<path d="M73.6025 88.6518C73.6025 92.8148 76.233 96.8483 80.1427 98.3307L81.9682 93.6323C80.0152 92.8902 78.7539 90.6605 78.7539 88.5906C78.7539 85.8525 80.9818 83.2077 83.7219 83.2077H84.0417C86.7799 83.2077 89.0097 85.9118 89.0097 88.65C89.0097 90.8312 87.5292 93.0178 85.4091 93.6286L86.8339 98.6973C91.1514 97.4558 94.1648 93.0536 94.1648 88.5906C94.1648 83.0118 89.6245 78.0566 84.0438 78.0566H83.724C78.1451 78.0584 73.603 83.073 73.603 88.6518H73.6025Z" fill="white"/>
<path d="M108.095 86.0119L113.045 87.4421C113.665 85.286 116.015 83.8379 118.227 83.8379C120.965 83.8379 123.633 86.0658 123.633 88.8041V89.1257C123.633 91.8639 120.961 94.0919 118.227 94.0919C116.159 94.0919 114.121 92.8306 113.379 90.8775L108.454 92.703C109.935 96.6162 114.117 99.2432 118.281 99.2432C123.859 99.2432 128.784 94.7047 128.784 89.1259V88.8043C128.784 83.2254 123.806 78.687 118.227 78.687C113.764 78.687 109.34 81.7001 108.095 86.0123L108.095 86.0119Z" fill="white"/>
<path d="M103.389 63.0782C108.731 63.0782 113.724 59.704 115.629 54.6858L110.876 52.8567C109.707 55.9381 106.622 57.9255 103.355 57.9255C99.0321 57.9255 95.3001 54.4129 95.3001 50.0901L95.3019 49.6499C95.3019 45.3306 99.0643 41.8145 103.387 41.8145C106.831 41.8145 110.035 44.1502 110.998 47.4973L116.011 46.0706C114.413 40.5332 109.083 36.6631 103.356 36.6631C96.1966 36.6631 90.1504 42.4899 90.1504 49.6496V50.0934C90.1522 57.2513 96.2269 63.078 103.388 63.078L103.389 63.0782Z" fill="white"/>
</g>
</svg>
