<svg width="178" height="181" viewBox="0 0 178 181" fill="none" xmlns="http://www.w3.org/2000/svg">
<g opacity="0.25">
<path d="M10.5795 157.382C4.68016 157.427 0.0270585 161.943 0.000117473 167.672C-0.026944 173.393 4.62474 177.92 10.5887 177.981C12.6364 177.999 14.7111 177.99 16.7498 177.99L16.7588 200.8C16.7858 208.909 22.6762 214.809 30.7674 214.809C39.9546 214.809 49.1585 214.809 58.3458 214.818H58.4179H97.3747C119.583 214.818 141.781 214.818 163.981 214.809C172.099 214.809 177.998 208.926 177.998 200.809L178 14.2884C178 5.74768 172.225 0 163.641 0H31.2409C22.4489 0 16.7647 5.72959 16.7374 14.5755L16.7464 40.1064C14.5289 40.1244 12.3023 40.1605 10.0835 40.2146C7.36233 40.2672 4.82152 41.3993 2.95296 43.4018C1.08572 45.3953 0.0799705 48.0984 0.186696 50.8195C0.448289 56.4859 4.80362 60.6622 10.5332 60.7434C12.662 60.7614 14.7895 60.7614 16.909 60.7524V97.1498C14.8614 97.1498 12.8047 97.1408 10.748 97.1498C4.72241 97.2039 0.168608 101.614 0.168608 107.406C0.168608 113.162 4.70433 117.572 10.721 117.671C11.9779 117.689 13.2182 117.689 14.466 117.689C15.2749 117.689 16.0912 117.689 16.9 117.68V157.399C14.7983 157.388 12.6892 157.37 10.5781 157.379L10.5795 157.382ZM61.9753 7.19309H163.632C168.256 7.19309 170.798 9.70831 170.798 14.2878V200.82C170.798 204.96 168.122 207.628 163.973 207.628C129.965 207.646 95.9661 207.655 61.9742 207.637L61.9753 7.19309ZM20.2167 170.806L18.0713 170.815C15.6103 170.842 13.1326 170.851 10.6714 170.806C8.67787 170.788 7.18649 169.459 7.19553 167.717C7.20455 165.875 8.61475 164.582 10.6353 164.573C13.8947 164.546 17.1543 164.528 20.4061 164.528H20.4692C20.4873 164.528 20.4963 164.537 20.5143 164.537C20.5324 164.537 20.5414 164.528 20.5504 164.528C23.7647 164.528 26.9805 164.546 30.1949 164.573C31.2188 164.573 32.0712 164.896 32.665 165.498C33.2213 166.063 33.5009 166.836 33.4919 167.742C33.4738 169.539 32.1538 170.769 30.1784 170.796C27.9067 170.85 25.6334 170.832 23.3619 170.814L20.2167 170.806ZM7.37465 50.5143C7.33857 49.7145 7.64376 48.9072 8.21056 48.3148C8.58791 47.9014 9.26145 47.4083 10.2672 47.3812C13.5266 47.3166 16.7951 47.282 20.0649 47.273C20.1642 47.282 20.2529 47.291 20.3431 47.291C24.1422 47.3542 27.2661 47.3181 30.715 47.3812C32.4665 47.4263 33.6782 48.7102 33.6421 50.5158C33.6151 52.3921 32.3762 53.5241 30.3196 53.5512C28.0119 53.5858 25.7042 53.5767 23.3965 53.5677L20.5851 53.5587H20.513L17.5047 53.5677C15.1969 53.5948 12.9162 53.5858 10.6355 53.5497C8.73066 53.5226 7.45586 52.3289 7.37465 50.5143ZM10.8325 110.466C8.73075 110.439 7.36565 109.227 7.36565 107.394C7.36565 105.553 8.7127 104.35 10.8145 104.332C13.8589 104.305 16.9031 104.296 19.9567 104.296H20.4769C20.4859 104.296 20.504 104.305 20.513 104.305C20.522 104.305 20.531 104.296 20.5491 104.296C23.7543 104.296 26.961 104.305 30.1574 104.332C32.3313 104.341 33.6423 105.464 33.6603 107.331C33.6874 110.016 31.4609 110.448 30.1228 110.466C27.8783 110.502 25.6233 110.502 23.4057 110.484L20.3793 110.475L17.4161 110.484C15.2241 110.511 13.0424 110.502 10.8325 110.466ZM24.106 117.66C26.1446 117.678 28.1922 117.687 30.2308 117.65C36.428 117.551 40.8991 113.187 40.8541 107.251C40.7819 101.44 36.3091 97.1845 30.2039 97.1395C28.1653 97.1305 26.1446 97.1395 24.106 97.1395V60.751C26.2077 60.76 28.3261 60.769 30.4279 60.7329C36.3634 60.6517 40.7367 56.4047 40.836 50.63C40.9262 44.9097 36.5527 40.3301 30.8686 40.195C28.5593 40.1499 26.2424 40.1138 23.9347 40.1048L23.9257 14.592C23.9347 9.75108 26.477 7.19206 31.2444 7.19206H54.7832V207.633C46.7732 207.633 38.7717 207.633 30.7602 207.624C26.629 207.624 23.9526 204.939 23.9438 200.781L23.9348 177.997C26.0185 177.988 28.173 178.006 30.2655 177.979C36.1483 177.898 40.6105 173.524 40.6736 167.804C40.6917 164.983 39.6678 162.379 37.7735 160.458C35.8432 158.492 33.167 157.405 30.2385 157.378C28.1909 157.36 26.1431 157.387 24.0956 157.378L24.0971 117.659L24.106 117.66Z" fill="white"/>
<path d="M99.82 80.1495H107.866V88.0875C107.866 90.0719 109.482 91.6791 111.458 91.6791H130.093C132.077 91.6791 133.684 90.0629 133.684 88.0875V83.75C133.693 82.5382 133.693 81.334 133.693 80.1222L141.712 80.1132C143.697 80.1132 145.304 78.497 145.304 76.5216L145.305 57.8599C145.305 55.8754 143.689 54.2683 141.714 54.2683H133.704L133.702 46.2926C133.702 44.3081 132.086 42.7009 130.111 42.7009H111.431C109.447 42.7009 107.839 44.3171 107.839 46.2926V54.3025H99.8202C97.8357 54.3025 96.2286 55.9187 96.2286 57.8941V76.547C96.2195 78.533 97.8355 80.1495 99.82 80.1495ZM103.412 61.4966H111.431C113.415 61.4966 115.022 59.8805 115.022 57.905L115.024 49.895H126.51V57.8692C126.51 59.8537 128.126 61.4608 130.102 61.4608H138.112V72.9196L133.648 72.9377L131.206 72.9016C129.805 72.9016 128.648 73.3511 127.776 74.2306C126.896 75.1281 126.465 76.3143 126.492 77.7771C126.528 79.7616 126.519 81.7371 126.51 83.7215V84.4852H115.06V76.5488C115.06 74.5643 113.444 72.9571 111.468 72.9571H103.422L103.421 61.4968L103.412 61.4966Z" fill="white"/>
<path d="M158.263 119.969H82.9549C80.9704 119.969 79.3633 121.585 79.3633 123.56C79.3633 125.536 80.9794 127.152 82.9549 127.152H158.263C160.247 127.152 161.854 125.536 161.854 123.56C161.856 121.585 160.247 119.969 158.263 119.969Z" fill="white"/>
<path d="M158.263 144.073H82.9549C80.9704 144.073 79.3633 145.689 79.3633 147.664C79.3633 149.64 80.9794 151.256 82.9549 151.256H158.263C160.247 151.256 161.854 149.64 161.854 147.664C161.856 145.689 160.247 144.073 158.263 144.073Z" fill="white"/>
<path d="M158.263 168.185H82.9549C80.9704 168.185 79.3633 169.801 79.3633 171.777C79.3633 173.752 80.9794 175.368 82.9549 175.368H158.263C160.247 175.368 161.854 173.752 161.854 171.777C161.856 169.801 160.247 168.185 158.263 168.185Z" fill="white"/>
</g>
</svg>
